<?xml version="1.0" encoding="utf-8"?><svg xmlns="http://www.w3.org/2000/svg" xmlns:xlink="http://www.w3.org/1999/xlink"><symbol fill="none" viewBox="0 0 50 50" id="accountants-icon" xmlns="http://www.w3.org/2000/svg"><rect width="50" height="50" rx="25" fill="#F4F5F7"/><path d="M34 37h-9a1 1 0 01-1-1v-2a1 1 0 011-1h9a1 1 0 011 1v2a1 1 0 01-1 1z" fill="#D6B1FF"/><path d="M34 13H16a1 1 0 00-1 1v2a1 1 0 001 1h18a1 1 0 001-1v-2a1 1 0 00-1-1zM34 19H16a1 1 0 00-1 1v10a1 1 0 001 1h18a1 1 0 001-1V20a1 1 0 00-1-1z" fill="#11B5E4"/></symbol><symbol fill="none" viewBox="0 0 50 50" id="enterpreneur-icon" xmlns="http://www.w3.org/2000/svg"><rect width="50" height="50" rx="25" fill="#F4F5F7"/><path d="M31 23h6l-3-4-3 4zm0 4h6l-3 4-3-4z" fill="#D6B1FF"/><path d="M14 13h6v24h-6a1 1 0 01-1-1V14a1 1 0 011-1zM22 13h6a1 1 0 011 1v22a1 1 0 01-1 1h-6V13z" fill="#02897A"/></symbol><symbol fill="none" viewBox="0 0 40 40" id="facebook-icon" xmlns="http://www.w3.org/2000/svg"><circle cx="20" cy="20" r="20" fill="#EDFFFC"/><path d="M26 10h-3a5 5 0 00-5 5v3h-3v4h3v8h4v-8h3l1-4h-4v-3a1 1 0 011-1h3v-4z" stroke="#02897A" stroke-width="2" stroke-linecap="round" stroke-linejoin="round"/></symbol><symbol fill="none" viewBox="0 0 50 51" id="icon-with-clocks" xmlns="http://www.w3.org/2000/svg"><g clip-path="url(#dclip0_1_565)"><rect y=".83" width="50" height="50" rx="19" fill="#F03E3D"/><path d="M30.571 20.259h.858c.16 0 .285-.125.285-.286V19.4a.282.282 0 00-.285-.285H18.286A.282.282 0 0018 19.4v.572c0 .16.125.286.286.286h.857c0 3.303 1.58 5.696 3.33 6.857-1.75 1.16-3.33 3.553-3.33 6.857h-.857a.282.282 0 00-.286.286v.571c0 .16.125.286.286.286h13.143c.16 0 .285-.125.285-.286v-.571a.282.282 0 00-.285-.286h-.858c0-3.304-1.58-5.697-3.33-6.857 1.75-1.16 3.33-3.554 3.33-6.857zm-1.142 0a7.915 7.915 0 01-.76 3.428h-7.624a7.916 7.916 0 01-.76-3.428h9.144zm-.51 10.857h-8.124c.66-1.723 1.848-2.947 3.035-3.429h2.054c1.187.482 2.375 1.706 3.036 3.429z" fill="#fff"/></g><defs><clipPath id="dclip0_1_565"><path fill="#fff" transform="translate(0 .83)" d="M0 0h50v50H0z"/></clipPath></defs></symbol><symbol fill="none" viewBox="0 0 51 50" id="icon-with-cursor" xmlns="http://www.w3.org/2000/svg"><rect width="50" height="50" rx="19" fill="#02897A"/><path d="M29.116 26.598l-9.143-9.143a.533.533 0 00-.402-.17.575.575 0 00-.214.045.572.572 0 00-.357.527v13.429a.573.573 0 00.571.571.568.568 0 00.402-.17l2.786-2.785 1.705 4.035a.574.574 0 00.75.304l1.58-.67a.574.574 0 00.304-.75l-1.794-4.25h3.41a.573.573 0 00.527-.357.55.55 0 00-.125-.616z" fill="#fff"/></symbol><symbol fill="none" viewBox="0 0 50 50" id="icon-with-heart" xmlns="http://www.w3.org/2000/svg"><rect width="50" height="50" rx="19" fill="#F03E3D"/><path d="M25 33.143a.554.554 0 00.393-.16l5.562-5.358c.08-.08 2.045-1.875 2.045-4.018 0-2.616-1.598-4.178-4.268-4.178-1.562 0-3.027 1.232-3.732 1.928-.705-.696-2.17-1.928-3.732-1.928-2.67 0-4.268 1.562-4.268 4.178 0 2.143 1.964 3.938 2.036 4l5.571 5.375c.107.107.25.16.393.16z" fill="#fff"/></symbol><symbol fill="none" viewBox="0 0 50 51" id="icon-with-heart-violet" xmlns="http://www.w3.org/2000/svg"><g clip-path="url(#gclip0_1_557)"><rect y=".83" width="50" height="50" rx="19" fill="#740A76"/><path d="M25 33.973a.554.554 0 00.393-.16l5.562-5.358c.08-.08 2.045-1.875 2.045-4.018 0-2.616-1.598-4.178-4.268-4.178-1.562 0-3.027 1.232-3.732 1.928-.705-.696-2.17-1.928-3.732-1.928-2.67 0-4.268 1.562-4.268 4.178 0 2.143 1.964 3.938 2.036 4l5.571 5.375c.107.107.25.16.393.16z" fill="#fff"/></g><defs><clipPath id="gclip0_1_557"><path fill="#fff" transform="translate(0 .83)" d="M0 0h50v50H0z"/></clipPath></defs></symbol><symbol fill="none" viewBox="0 0 50 50" id="icon-with-result" xmlns="http://www.w3.org/2000/svg"><rect width="50" height="50" rx="19" fill="#4D8DFF"/><path d="M25.482 24.643l1.17.544 1.74-.517v-1.215c0-2.062-1.74-3.714-3.82-3.714-2.072 0-3.822 1.643-3.822 3.688v5.535c0 .51-.41.911-.91.911s-.911-.402-.911-.91v-2.34H16V29a3.83 3.83 0 003.83 3.83c2.099 0 3.83-1.687 3.83-3.776v-5.465c0-.5.411-.91.911-.91s.911.41.911.91v1.054zm4.732 1.982v2.455c0 .5-.41.902-.91.902s-.911-.402-.911-.902v-2.41l-1.741.517-1.17-.544v2.393c0 2.098 1.723 3.794 3.83 3.794a3.83 3.83 0 003.83-3.83v-2.375h-2.928z" fill="#fff"/></symbol><symbol fill="none" viewBox="0 0 40 41" id="instagram-icon" xmlns="http://www.w3.org/2000/svg"><circle cx="20" cy="20.016" r="20" fill="#EDFFFC"/><path d="M25 10.016H15a5 5 0 00-5 5v10a5 5 0 005 5h10a5 5 0 005-5v-10a5 5 0 00-5-5z" stroke="#02897A" stroke-width="2" stroke-linecap="round" stroke-linejoin="round"/><path d="M24 19.386a4 4 0 11-7.913 1.173A4 4 0 0124 19.386zM25.5 14.516h.01" stroke="#02897A" stroke-width="2" stroke-linecap="round" stroke-linejoin="round"/></symbol><symbol fill="none" viewBox="0 0 32 30" id="logo" xmlns="http://www.w3.org/2000/svg"><path fill-rule="evenodd" clip-rule="evenodd" d="M2.506 27.567A2.514 2.514 0 010 25.06v-8.763h6.309v-.01h3.792c.977-.024 1.805-.876 1.805-1.88 0-1.027-.853-1.879-1.88-1.879H5.013v.002H0v-2.508a2.514 2.514 0 012.506-2.507h7.52c1.905 0 3.534.677 4.862 2.03 1.354 1.329 2.03 2.958 2.03 4.863 0 1.88-.651 3.509-1.98 4.837-1.328 1.329-2.932 2.03-4.812 2.056H5.013v3.76a2.514 2.514 0 01-2.507 2.506z" fill="#02BC6B"/><path fill-rule="evenodd" clip-rule="evenodd" d="M20.078 4.606c2.77 2.69 4.165 6.04 4.165 9.848 0 3.744-1.337 7.09-4.064 9.789L16.31 20.6c1.695-1.678 2.527-3.698 2.527-6.147 0-2.467-.857-4.484-2.594-6.17l3.836-3.678z" fill="#02897A"/><path fill-rule="evenodd" clip-rule="evenodd" d="M26.004 0C29.993 3.982 32 8.92 32 14.587c0 5.579-1.926 10.513-5.85 14.504l-3.735-3.65c2.922-2.973 4.354-6.578 4.354-10.854 0-4.318-1.48-7.92-4.466-10.902L26.004 0z" fill="#035B81"/><path fill-rule="evenodd" clip-rule="evenodd" d="M0 21.322h5.013v3.739a2.514 2.514 0 01-2.507 2.506A2.514 2.514 0 010 25.061v-3.74z" fill="#028E37"/></symbol><symbol fill="none" viewBox="0 0 32 32" id="theme-switcher" xmlns="http://www.w3.org/2000/svg"><rect width="32" height="32" rx="16" fill="#F3F3F3"/><path d="M16 26c5.514 0 10-4.486 10-10S21.514 6 16 6 6 10.486 6 16s4.486 10 10 10zm0-18c4.411 0 8 3.589 8 8s-3.589 8-8 8-8-3.589-8-8 3.589-8 8-8z" fill="#02897A"/><path d="M23 16a7 7 0 00-7-7v14a7 7 0 007-7z" fill="#02897A"/></symbol><symbol fill="none" viewBox="0 0 40 40" id="twitter-icon" xmlns="http://www.w3.org/2000/svg"><circle cx="20" cy="20" r="20" fill="#EDFFFC"/><path d="M31 11.01a10.902 10.902 0 01-3.14 1.53 4.48 4.48 0 00-7.86 3v1a10.66 10.66 0 01-9-4.53s-4 9 5 13a11.64 11.64 0 01-7 2c9 5 20 0 20-11.5 0-.278-.028-.556-.08-.83A7.72 7.72 0 0031 11.01v0z" stroke="#02897A" stroke-width="2" stroke-linecap="round" stroke-linejoin="round"/></symbol><symbol fill="none" viewBox="0 0 50 50" id="universities-icon" xmlns="http://www.w3.org/2000/svg"><rect width="50" height="50" rx="25" fill="#F4F5F7"/><path d="M18 14h-3a1 1 0 00-1 1v20a1 1 0 001 1h3V14z" fill="#D6B1FF"/><path d="M20 36h10V14H20v22zm5-4a1 1 0 110-2 1 1 0 010 2zm0-14a1 1 0 110 2 1 1 0 010-2zm0 6a1 1 0 110 2 1 1 0 010-2zM35 14h-3v22h3a1 1 0 001-1V15a1 1 0 00-1-1z" fill="#F03E3D"/></symbol></svg>