<?xml version="1.0" encoding="utf-8"?><svg xmlns="http://www.w3.org/2000/svg" xmlns:xlink="http://www.w3.org/1999/xlink"><symbol viewBox="0 0 21 20" id="circle-arrow-right" xmlns="http://www.w3.org/2000/svg"><path d="M11.67 11H5.5V9h6.17L9.09 6.41 10.5 5l5 5-5 5-1.41-1.41L11.67 11z"/><path fill-rule="evenodd" clip-rule="evenodd" d="M.5 10c0-5.523 4.477-10 10-10s10 4.477 10 10-4.477 10-10 10-10-4.477-10-10zm2 0a8 8 0 1116 0 8 8 0 01-16 0z"/></symbol><symbol viewBox="0 0 19 19" id="star" xmlns="http://www.w3.org/2000/svg"><path d="M18.31 6.587a.918.918 0 00-.796-.62l-5.23-.416L10.023.542a.915.915 0 00-1.671 0l-2.263 5.01-5.229.415a.917.917 0 00-.568 1.57l3.864 3.768-1.366 5.918a.917.917 0 001.403.97l4.995-3.33 4.994 3.33a.918.918 0 001.391-1.015l-1.677-5.87 4.16-3.745a.919.919 0 00.255-.976z"/></symbol><symbol viewBox="0 0 17 19" id="triangle-arrow-right" xmlns="http://www.w3.org/2000/svg"><path fill-rule="evenodd" clip-rule="evenodd" d="M15.852 8.53c.739.435.739 1.505 0 1.94L2.195 18.503c-.75.44-1.695-.1-1.695-.97V1.467c0-.87.945-1.41 1.695-.97L15.852 8.53z"/></symbol></svg>