<svg width="50" height="51" viewBox="0 0 50 51" fill="none" xmlns="http://www.w3.org/2000/svg">
<g clip-path="url(#clip0_1_557)">
<rect y="0.830078" width="50" height="50" rx="19" fill="#740A76"/>
<path d="M25 33.9729C25.1429 33.9729 25.2857 33.9194 25.3929 33.8122L30.9554 28.4551C31.0357 28.3747 33 26.5801 33 24.4372C33 21.8211 31.4018 20.2586 28.7321 20.2586C27.1696 20.2586 25.7054 21.4908 25 22.1872C24.2946 21.4908 22.8304 20.2586 21.2679 20.2586C18.5982 20.2586 17 21.8211 17 24.4372C17 26.5801 18.9643 28.3747 19.0357 28.4372L24.6071 33.8122C24.7143 33.9194 24.8571 33.9729 25 33.9729Z" fill="white"/>
</g>
<defs>
<clipPath id="clip0_1_557">
<rect width="50" height="50" fill="white" transform="translate(0 0.830078)"/>
</clipPath>
</defs>
</svg>
