<svg width="50" height="51" viewBox="0 0 50 51" fill="none" xmlns="http://www.w3.org/2000/svg">
<g clip-path="url(#clip0_1_565)">
<rect y="0.830078" width="50" height="50" rx="19" fill="#F03E3D"/>
<path d="M30.5714 20.2586H31.4286C31.5893 20.2586 31.7143 20.1336 31.7143 19.9729V19.4015C31.7143 19.2408 31.5893 19.1158 31.4286 19.1158H18.2857C18.125 19.1158 18 19.2408 18 19.4015V19.9729C18 20.1336 18.125 20.2586 18.2857 20.2586H19.1429C19.1429 23.5622 20.7232 25.9551 22.4732 27.1158C20.7232 28.2765 19.1429 30.6694 19.1429 33.9729H18.2857C18.125 33.9729 18 34.0979 18 34.2586V34.8301C18 34.9908 18.125 35.1158 18.2857 35.1158H31.4286C31.5893 35.1158 31.7143 34.9908 31.7143 34.8301V34.2586C31.7143 34.0979 31.5893 33.9729 31.4286 33.9729H30.5714C30.5714 30.6694 28.9911 28.2765 27.2411 27.1158C28.9911 25.9551 30.5714 23.5622 30.5714 20.2586ZM29.4286 20.2586C29.4286 21.5622 29.1339 22.714 28.6696 23.6872H21.0446C20.5804 22.714 20.2857 21.5622 20.2857 20.2586H29.4286ZM28.9196 31.1158H20.7946C21.4554 29.3926 22.6429 28.1694 23.8304 27.6872H25.8839C27.0714 28.1694 28.2589 29.3926 28.9196 31.1158Z" fill="white"/>
</g>
<defs>
<clipPath id="clip0_1_565">
<rect width="50" height="50" fill="white" transform="translate(0 0.830078)"/>
</clipPath>
</defs>
</svg>
