<svg width="21" height="20" viewBox="0 0 21 20" fill="none" xmlns="http://www.w3.org/2000/svg">
<path d="M11.67 11H5.5V9H11.67L9.09 6.41L10.5 5L15.5 10L10.5 15L9.09 13.59L11.67 11Z" fill="#2E3A59"/>
<path fill-rule="evenodd" clip-rule="evenodd" d="M0.5 10C0.5 4.47715 4.97715 -4.82823e-07 10.5 0C16.0228 4.82823e-07 20.5 4.47715 20.5 10C20.5 15.5228 16.0228 20 10.5 20C4.97715 20 0.5 15.5228 0.5 10ZM2.5 10C2.5 5.58172 6.08172 2 10.5 2C14.9183 2 18.5 5.58172 18.5 10C18.5 14.4183 14.9183 18 10.5 18C6.08172 18 2.5 14.4183 2.5 10Z" fill="#2E3A59"/>
</svg>
