<svg width="19" height="19" viewBox="0 0 19 19" fill="none" xmlns="http://www.w3.org/2000/svg">
<path d="M18.3103 6.58663C18.2526 6.41682 18.1465 6.26761 18.005 6.15742C17.8635 6.04723 17.6929 5.98089 17.5141 5.96658L12.2849 5.55107L10.0221 0.542056C9.95006 0.380725 9.83285 0.243699 9.68463 0.147514C9.53641 0.0513295 9.36352 9.71158e-05 9.18682 1.37932e-07C9.01013 -9.684e-05 8.83718 0.0509458 8.68886 0.146968C8.54053 0.24299 8.42317 0.379887 8.35093 0.541138L6.08811 5.55107L0.858957 5.96658C0.683266 5.9805 0.515304 6.04474 0.375166 6.15161C0.235029 6.25849 0.128649 6.40348 0.0687534 6.56923C0.00885819 6.73498 -0.00201613 6.91448 0.0374315 7.08625C0.0768791 7.25802 0.164978 7.41479 0.291189 7.5378L4.1555 11.3049L2.78882 17.2229C2.74732 17.402 2.76062 17.5895 2.82699 17.761C2.89337 17.9324 3.00975 18.08 3.16103 18.1845C3.31232 18.2891 3.49153 18.3457 3.6754 18.3471C3.85927 18.3485 4.03932 18.2946 4.19219 18.1924L9.18653 14.8628L14.1809 18.1924C14.3371 18.2961 14.5214 18.3495 14.7089 18.3454C14.8963 18.3413 15.0781 18.2799 15.2296 18.1694C15.3812 18.0589 15.4952 17.9047 15.5565 17.7274C15.6178 17.5502 15.6233 17.3584 15.5723 17.1779L13.8947 11.3076L18.0553 7.56348C18.3277 7.31766 18.4277 6.93426 18.3103 6.58663Z" fill="#F3CD03"/>
</svg>
